# xmcd
#
# Track frame offsets: 
#        150
#        20590
#        33387
#        51580
#        65417
#        77677
#        96372
#        110662
#        124830
#        138745
#        147890
#        162620
#        185095
#
# Disc length: 2715 seconds
#
# Revision: 3
# Processed by: cddbd v1.4PL0 Copyright (c) Steve Scherf et al.
# Submitted via: ExactAudioCopy v0.90b4
#
DISCID=c80a990d
DTITLE=Botti, Chris - December
DYEAR=2002
DGENRE=Jazz
TTITLE0=The Christmas Song
TTITLE1=First Noel
TTITLE2=Let It Snow, Let It Snow, Let It Snow
TTITLE3=Hallelujah
TTITLE4=Perfect Day
TTITLE5=Santa Claus Is Coming to Town
TTITLE6=O Little Town of Behtlehem
TTITLE7=Winter Wonderland
TTITLE8=Little Drummer Boy
TTITLE9=Hark! The Herald Angels Sing
TTITLE10=Have Yourself a Merry Little Christmas
TTITLE11=Silent Night
TTITLE12=Ill Be Home for Christmas
EXTD=YEAR: 2002
EXTT0=
EXTT1=
EXTT2=
EXTT3=
EXTT4=
EXTT5=
EXTT6=
EXTT7=
EXTT8=
EXTT9=
EXTT10=
EXTT11=
EXTT12=
PLAYORDER=
